<svg height="512pt" viewBox="-43 0 512 512" width="512pt" xmlns="http://www.w3.org/2000/svg"><g fill="#1e4751"><path d="m60.796875 362.074219h51.664063v149.925781h-51.664063zm0 0"/><path d="m117.222656 511.792969h-61.191406c-6.128906 0-11.097656-4.96875-11.097656-11.097657v-8.515624c0-6.128907 4.96875-11.097657 11.097656-11.097657h61.191406c6.128906 0 11.097656 4.96875 11.097656 11.097657v8.515624c0 6.128907-4.96875 11.097657-11.097656 11.097657zm0 0"/><path d="m314.320312 362.074219h51.667969v149.925781h-51.667969zm0 0"/></g><path d="m361.65625 328.09375h-296.53125v-262.957031c0-35.972657 29.164062-65.136719 65.136719-65.136719h166.257812c35.972657 0 65.136719 29.164062 65.136719 65.136719zm0 0" fill="#f43b45"/><path d="m296.519531 0h-52.746093c35.972656 0 65.136718 29.164062 65.136718 65.136719v262.957031h52.746094v-262.957031c0-35.972657-29.164062-65.136719-65.136719-65.136719zm0 0" fill="#d82b2b"/><path d="m65.125 367.5v-147.988281c0-9.953125-8.070312-18.023438-18.023438-18.023438h-29.078124c-9.953126 0-18.023438 8.070313-18.023438 18.023438v82.863281c0 35.96875 29.15625 65.125 65.125 65.125zm0 0" fill="#d82b2b"/><path d="m361.65625 367.5v-147.988281c0-9.953125 8.070312-18.023438 18.027344-18.023438h29.074218c9.953126 0 18.023438 8.070313 18.023438 18.023438v82.863281c0 35.96875-29.15625 65.125-65.125 65.125zm0 0" fill="#f43b45"/><path d="m364.574219 407.199219h-302.363281c-9.542969 0-17.277344-7.734375-17.277344-17.277344v-41.863281h336.914062v41.863281c0 9.542969-7.734375 17.277344-17.273437 17.277344zm0 0" fill="#345863"/><path d="m382.574219 377.628906h-338.367188c-16.867187 0-30.539062-13.671875-30.539062-30.539062 0-26.710938 21.65625-48.367188 48.367187-48.367188h302.710938c26.714844 0 48.367187 21.65625 48.367187 48.367188 0 16.867187-13.671875 30.539062-30.539062 30.539062zm0 0" fill="#ff4a5c"/><path d="m370.75 511.792969h-61.191406c-6.128906 0-11.097656-4.96875-11.097656-11.097657v-8.515624c0-6.128907 4.96875-11.097657 11.097656-11.097657h61.191406c6.128906 0 11.097656 4.96875 11.097656 11.097657v8.515624c0 6.128907-4.96875 11.097657-11.097656 11.097657zm0 0" fill="#1e4751"/></svg>